<?xml version="1.0" encoding="UTF-8" standalone="no"?>
<!DOCTYPE svg PUBLIC "-//W3C//DTD SVG 1.1//EN" "http://www.w3.org/Graphics/SVG/1.1/DTD/svg11.dtd">
<svg width="100%" height="100%" viewBox="0 0 66 65" version="1.1" xmlns="http://www.w3.org/2000/svg" xmlns:xlink="http://www.w3.org/1999/xlink" xml:space="preserve" xmlns:serif="http://www.serif.com/" style="fill-rule:evenodd;clip-rule:evenodd;stroke-linejoin:round;stroke-miterlimit:2;">
    <g transform="matrix(0.681142,0.706637,-0.706637,0.681142,31.2575,-12.1432)">
        <path d="M57.058,7.8L46.662,7.8L46.662,9.912L44.517,9.912L44.517,11.96L42.471,11.96L42.471,13.975L40.392,13.975L40.392,16.087L38.247,16.087L38.247,18.135L36.201,18.135L36.201,20.15L34.122,20.15L34.122,22.263L32.01,22.263L32.01,24.277L29.964,24.277L29.964,26.325L27.918,26.325L27.918,28.438L25.74,28.438L25.74,30.453L23.694,30.453L23.694,32.565L21.648,32.565L21.648,34.58L23.694,34.58L23.694,36.595L25.74,36.595L25.74,38.708L27.885,38.708L27.885,40.755L29.931,40.755L29.931,42.77L32.011,42.77L32.011,40.755L34.155,40.755L34.155,38.708L36.235,38.708L36.235,36.595L38.28,36.595L38.28,34.58L40.425,34.58L40.425,32.565L42.471,32.565L42.471,30.453L44.517,30.453L44.517,28.438L46.662,28.438L46.662,26.325L48.708,26.325L48.708,24.278L50.788,24.278L50.788,22.23L52.932,22.23L52.932,20.15L54.978,20.15L54.978,18.103L57.058,18.103L57.058,7.8ZM27.886,48.913L25.741,48.913L25.741,53.072L23.695,53.072L23.695,57.2L25.741,57.2L25.741,55.087L27.886,55.087L27.886,53.072L29.932,53.072L29.932,51.025L27.886,51.025L27.886,48.913ZM15.214,36.595L13.168,36.595L13.168,34.58L11.023,34.58L11.023,38.708L8.977,38.708L8.977,42.77L11.023,42.77L11.023,40.722L13.168,40.722L13.168,38.708L15.214,38.708L15.214,36.595ZM23.697,44.85L21.616,44.85L21.616,42.77L19.504,42.77L19.504,40.722L17.425,40.722L17.425,44.85L15.38,44.85L15.38,48.913L13.235,48.913L13.235,55.087L15.38,55.087L15.38,53.072L17.426,53.072L17.426,51.025L19.506,51.025L19.506,48.913L21.617,48.913L21.617,46.898L23.697,46.898L23.697,44.85Z" style="fill:rgb(241,195,33);fill-rule:nonzero;"/>
    </g>
    <g transform="matrix(0.681142,0.706637,-0.706637,0.681142,31.2575,-12.1432)">
        <path d="M27.16,27.69L27.16,25.61L29.24,25.61L29.24,23.563L31.286,23.563L31.286,21.547L33.432,21.547L33.432,19.435L35.477,19.435L35.477,17.42L37.555,17.42L37.555,15.373L39.7,15.373L39.7,13.975L34.123,13.975L34.123,16.087L32.011,16.087L32.011,18.102L29.932,18.102L29.932,20.15L27.886,20.15L27.886,22.23L21.616,22.23L21.616,24.277L19.504,24.277L19.504,26.292L17.425,26.292L17.425,28.405L15.38,28.405L15.38,30.42L13.235,30.42L13.235,32.532L15.38,32.532L15.38,34.58L17.426,34.58L17.426,36.595L19.506,36.595L19.506,38.708L21.617,38.708L21.617,36.595L22.97,36.595L22.97,35.263L20.924,35.263L20.924,31.85L22.97,31.85L22.97,29.737L25.048,29.737L25.048,27.69L27.161,27.69L27.16,27.69ZM49.436,24.96L49.436,27.008L47.357,27.008L47.357,29.087L45.245,29.087L45.245,31.135L43.166,31.135L43.166,33.248L41.12,33.248L41.12,35.263L38.975,35.263L38.975,37.31L36.93,37.31L36.93,39.39L34.85,39.39L34.85,41.437L32.705,41.437L32.705,43.452L29.24,43.452L29.24,41.437L27.887,41.437L27.887,42.77L25.742,42.77L25.742,44.85L27.887,44.85L27.887,46.897L29.933,46.897L29.933,48.913L32.013,48.913L32.013,51.025L34.124,51.025L34.124,48.913L36.204,48.913L36.204,46.898L38.249,46.898L38.249,44.85L40.394,44.85L40.394,42.77L42.474,42.77L42.474,36.595L44.519,36.595L44.519,34.58L46.664,34.58L46.664,32.533L48.71,32.533L48.71,30.42L50.79,30.42L50.79,24.96L49.436,24.96Z" style="fill:rgb(229,106,87);fill-rule:nonzero;"/>
    </g>
    <g transform="matrix(0.681142,0.706637,-0.706637,0.681142,31.2575,-12.1432)">
        <path d="M57.027,7.117L45.906,7.117L45.906,9.197L43.76,9.197L43.76,11.245L41.682,11.245L41.682,13.292L33.333,13.292L33.333,15.373L31.287,15.373L31.287,17.42L29.208,17.42L29.208,19.467L27.129,19.467L27.129,21.548L20.925,21.548L20.925,23.595L18.78,23.595L18.78,25.642L16.7,25.642L16.7,27.755L14.622,27.755L14.622,29.802L12.477,29.802L12.477,33.346L14.622,33.346L14.622,35.394L16.7,35.394L16.7,37.441L18.78,37.441L18.78,39.554L22.377,39.554L22.377,37.44L25.083,37.44L25.083,39.553L27.162,39.553L27.162,42.217L25.017,42.217L25.017,45.76L27.162,45.76L27.162,47.807L29.24,47.807L29.24,49.855L31.32,49.855L31.32,51.968L34.884,51.968L34.884,49.627L36.963,49.627L36.963,47.58L39.042,47.58L39.042,45.532L41.187,45.532L41.187,43.452L43.266,43.452L43.266,37.278L45.345,37.278L45.345,35.23L47.49,35.23L47.49,33.182L49.569,33.182L49.569,31.07L51.648,31.07L51.648,22.848L53.793,22.848L53.793,20.735L55.872,20.735L55.872,18.818L57.95,18.818L57.95,7.084L57.026,7.084L57.026,7.116L57.027,7.117ZM57.027,9.912L57.027,18.135L54.947,18.135L54.947,20.15L52.902,20.15L52.902,22.263L50.757,22.263L50.757,24.31L48.677,24.31L48.677,26.358L46.632,26.358L46.632,28.47L44.487,28.47L44.487,30.485L42.44,30.485L42.44,32.597L40.394,32.597L40.394,34.612L38.25,34.612L38.25,36.627L36.204,36.627L36.204,38.74L34.124,38.74L34.124,40.787L32.013,40.787L32.013,42.803L29.967,42.803L29.967,40.788L27.92,40.788L27.92,38.74L25.742,38.74L25.742,36.627L23.664,36.627L23.664,34.612L21.618,34.612L21.618,32.597L23.664,32.597L23.664,30.485L25.743,30.485L25.743,28.47L27.888,28.47L27.888,26.358L29.934,26.358L29.934,24.31L32.013,24.31L32.013,22.295L34.158,22.295L34.158,20.15L36.237,20.15L36.237,18.103L38.283,18.103L38.283,16.055L40.428,16.055L40.428,13.975L42.507,13.975L42.507,11.928L44.553,11.928L44.553,9.88L46.698,9.88L46.698,7.8L57.093,7.8L57.093,9.912L57.027,9.912ZM50.79,26.292L50.79,30.42L48.71,30.42L48.71,32.532L46.665,32.532L46.665,34.548L44.52,34.548L44.52,36.595L42.474,36.595L42.474,42.77L40.428,42.77L40.428,44.882L38.283,44.882L38.283,46.93L36.237,46.93L36.237,48.945L34.157,48.945L34.157,51.057L32.013,51.057L32.013,48.945L29.967,48.945L29.967,46.93L27.92,46.93L27.92,44.85L25.742,44.85L25.742,42.737L27.887,42.737L27.887,41.405L29.24,41.405L29.24,43.452L32.739,43.452L32.739,41.405L34.884,41.405L34.884,39.358L36.963,39.358L36.963,37.245L39.042,37.245L39.042,35.197L41.187,35.197L41.187,33.15L43.266,33.15L43.266,31.037L45.345,31.037L45.345,28.99L47.49,28.99L47.49,26.878L49.569,26.878L49.569,24.83L50.922,24.83L50.922,26.293L50.79,26.293L50.79,26.292ZM21.618,38.709L19.473,38.709L19.473,36.596L17.393,36.596L17.393,34.549L15.348,34.549L15.348,32.533L13.203,32.533L13.203,30.42L15.348,30.42L15.348,28.405L17.394,28.405L17.394,26.292L19.473,26.292L19.473,24.245L21.618,24.245L21.618,22.23L27.888,22.23L27.888,20.15L29.934,20.15L29.934,18.103L32.013,18.103L32.013,16.055L34.158,16.055L34.158,13.975L39.702,13.975L39.702,15.373L37.557,15.373L37.557,17.42L35.478,17.42L35.478,19.467L33.399,19.467L33.399,21.548L31.287,21.548L31.287,23.595L29.208,23.595L29.208,25.642L27.129,25.642L27.129,27.755L25.017,27.755L25.017,29.802L22.938,29.802L22.938,31.85L20.859,31.85L20.859,35.295L22.938,35.295L22.938,36.627L21.585,36.627L21.585,38.707L21.618,38.707L21.618,38.709Z" style="fill:rgb(35,31,32);fill-rule:nonzero;"/>
    </g>
    <g transform="matrix(0.681142,0.706637,-0.706637,0.681142,31.2575,-12.1432)">
        <path d="M28.58,50.31L28.58,48.197L25.016,48.197L25.016,52.358L22.937,52.358L22.937,57.915L26.469,57.915L26.469,55.802L28.613,55.802L28.613,53.755L30.693,53.755L30.693,50.31L28.58,50.31ZM29.934,53.072L27.887,53.072L27.887,55.087L25.742,55.087L25.742,57.2L23.663,57.2L23.663,53.072L25.743,53.072L25.743,48.913L27.888,48.913L27.888,51.025L29.933,51.025L29.933,53.072L29.934,53.072ZM13.86,41.438L13.86,39.39L15.939,39.39L15.939,35.847L13.86,35.847L13.86,33.8L10.263,33.8L10.263,37.928L8.25,37.928L8.25,43.42L11.748,43.42L11.748,41.373L13.86,41.373L13.86,41.438ZM11.022,42.77L8.976,42.77L8.976,38.708L11.022,38.708L11.022,34.58L13.167,34.58L13.167,36.595L15.246,36.595L15.246,38.708L13.167,38.708L13.167,40.755L11.022,40.755L11.022,42.77ZM24.385,47.58L24.385,44.135L22.306,44.135L22.306,42.022L20.161,42.022L20.161,39.975L16.63,39.975L16.63,44.103L14.551,44.103L14.551,48.197L12.406,48.197L12.406,55.802L16.003,55.802L16.003,53.755L18.148,53.755L18.148,51.708L20.227,51.708L20.227,49.627L22.372,49.627L22.372,47.58L24.385,47.58ZM21.614,48.913L19.468,48.913L19.468,51.025L17.39,51.025L17.39,53.072L15.344,53.072L15.344,55.087L13.199,55.087L13.199,48.913L15.344,48.913L15.344,44.85L17.39,44.85L17.39,40.722L19.47,40.722L19.47,42.737L21.614,42.737L21.614,44.85L23.66,44.85L23.66,46.897L21.614,46.897L21.614,48.913Z" style="fill:rgb(35,31,32);fill-rule:nonzero;"/>
    </g>
    <g transform="matrix(0.681142,0.706637,-0.706637,0.681142,31.2575,-12.1432)">
        <path d="M44.25,20.475L44.25,15.762L46.329,15.762L46.329,13.715L51.114,13.715L51.114,18.427L49.035,18.427L49.035,20.475L44.25,20.475Z" style="fill:rgb(229,106,87);fill-rule:nonzero;"/>
    </g>
    <g transform="matrix(0.681142,0.706637,-0.706637,0.681142,31.2575,-12.1432)">
        <path d="M50.782,14.04L50.782,18.102L48.736,18.102L48.736,20.15L44.644,20.15L44.644,16.087L46.69,16.087L46.69,14.073L50.782,14.073M51.442,13.39L46.03,13.39L46.03,15.405L43.984,15.405L43.984,20.8L49.396,20.8L49.396,18.785L51.442,18.785L51.442,13.39Z" style="fill:rgb(35,31,32);fill-rule:nonzero;"/>
    </g>
</svg>
